{
  "accessors": [
    {
      "bufferView": 2,
      "componentType": 5126,
      "count": 11641,
      "max": [
        0.96323001384735107,
        0.88906002044677734,
        2.5139200687408447
      ],
      "min": [
        -0.96935999393463135,
        -0.85471999645233154,
        -0.2121800035238266
      ],
      "type": "VEC3"
    },
    {
      "bufferView": 2,
      "byteOffset": 139692,
      "componentType": 5126,
      "count": 11641,
      "max": [
        0.99954050779342651,
        1,
        0.99999982118606567
      ],
      "min": [
        -0.99985748529434204,
        -1,
        -0.99928337335586548
      ],
      "type": "VEC3"
    },
    {
      "bufferView": 3,
      "componentType": 5126,
      "count": 11641,
      "max": [
        0.99994683265686035,
        1,
        0.99927806854248047,
        1
      ],
      "min": [
        -0.99995404481887817,
        -1,
        -0.99989396333694458,
        1
      ],
      "type": "VEC4"
    },
    {
      "bufferView": 1,
      "componentType": 5126,
      "count": 11641,
      "max": [
        0.99601000547409058,
        0.99601000547409058
      ],
      "min": [
        0.0039900001138448715,
        0.0039900001138448715
      ],
      "type": "VEC2"
    },
    {
      "bufferView": 0,
      "componentType": 5125,
      "count": 32538,
      "max": [
        11640
      ],
      "min": [
        0
      ],
      "type": "SCALAR"
    },
    {
      "bufferView": 2,
      "byteOffset": 279384,
      "componentType": 5126,
      "count": 8,
      "max": [
        2.6583199501037598,
        2.6583199501037598,
        0
      ],
      "min": [
        -2.6583199501037598,
        -2.6583199501037598,
        0
      ],
      "type": "VEC3"
    },
    {
      "bufferView": 2,
      "byteOffset": 279480,
      "componentType": 5126,
      "count": 8,
      "max": [
        0,
        0,
        1
      ],
      "min": [
        0,
        0,
        1
      ],
      "type": "VEC3"
    },
    {
      "bufferView": 3,
      "byteOffset": 186256,
      "componentType": 5126,
      "count": 8,
      "max": [
        0,
        1,
        0,
        1
      ],
      "min": [
        0,
        0,
        0,
        1
      ],
      "type": "VEC4"
    },
    {
      "bufferView": 1,
      "byteOffset": 93128,
      "componentType": 5126,
      "count": 8,
      "max": [
        0.98544001579284668,
        0.98544001579284668
      ],
      "min": [
        0.014560000039637089,
        0.014560000039637089
      ],
      "type": "VEC2"
    },
    {
      "bufferView": 0,
      "byteOffset": 130152,
      "componentType": 5125,
      "count": 30,
      "max": [
        7
      ],
      "min": [
        0
      ],
      "type": "SCALAR"
    },
    {
      "bufferView": 2,
      "byteOffset": 279576,
      "componentType": 5126,
      "count": 1984,
      "max": [
        1,
        1,
        1
      ],
      "min": [
        -1,
        -1,
        -1
      ],
      "type": "VEC3"
    },
    {
      "bufferView": 2,
      "byteOffset": 303384,
      "componentType": 5126,
      "count": 1984,
      "max": [
        0.99043834209442139,
        0.99043834209442139,
        0.99513870477676392
      ],
      "min": [
        -0.99043834209442139,
        -0.99043834209442139,
        -0.99513870477676392
      ],
      "type": "VEC3"
    },
    {
      "bufferView": 0,
      "byteOffset": 130272,
      "componentType": 5125,
      "count": 2880,
      "max": [
        1983
      ],
      "min": [
        0
      ],
      "type": "SCALAR"
    }
  ],
  "asset": {
    "generator": "Sketchfab (OSG glTF plugin)",
    "version": "2.0"
  },
  "bufferViews": [
    {
      "buffer": 0,
      "byteLength": 141792,
      "byteOffset": 0,
      "name": "floatBufferViews",
      "target": 34963
    },
    {
      "buffer": 0,
      "byteLength": 93192,
      "byteOffset": 141792,
      "byteStride": 8,
      "name": "floatBufferViews",
      "target": 34962
    },
    {
      "buffer": 0,
      "byteLength": 327192,
      "byteOffset": 234984,
      "byteStride": 12,
      "name": "floatBufferViews",
      "target": 34962
    },
    {
      "buffer": 0,
      "byteLength": 186384,
      "byteOffset": 562176,
      "byteStride": 16,
      "name": "floatBufferViews",
      "target": 34962
    }
  ],
  "buffers": [
    {
      "byteLength": 748560,
      "uri": "scene.bin"
    }
  ],
  "images": [
    {
      "uri": "textures/Material.001_baseColor.png"
    },
    {
      "uri": "textures/Material_baseColor.png"
    }
  ],
  "materials": [
    {
      "doubleSided": true,
      "emissiveFactor": [
        0,
        0,
        0
      ],
      "name": "SPHERE",
      "pbrMetallicRoughness": {
        "baseColorFactor": [
          0.88792324069999995,
          0.88792324069999995,
          0.88792324069999995,
          1
        ],
        "metallicFactor": 0,
        "roughnessFactor": 0.59999999999999998
      }
    },
    {
      "doubleSided": true,
      "emissiveFactor": [
        0,
        0,
        0
      ],
      "name": "Material.001",
      "pbrMetallicRoughness": {
        "baseColorFactor": [
          1,
          1,
          1,
          1
        ],
        "baseColorTexture": {
          "index": 0,
          "texCoord": 0
        },
        "metallicFactor": 0,
        "roughnessFactor": 0.59999999999999998
      }
    },
    {
      "doubleSided": true,
      "emissiveFactor": [
        0,
        0,
        0
      ],
      "name": "Material",
      "pbrMetallicRoughness": {
        "baseColorFactor": [
          1,
          1,
          1,
          1
        ],
        "baseColorTexture": {
          "index": 1,
          "texCoord": 0
        },
        "metallicFactor": 0,
        "roughnessFactor": 0.59999999999999998
      }
    }
  ],
  "meshes": [
    {
      "name": "Cube_0",
      "primitives": [
        {
          "attributes": {
            "NORMAL": 1,
            "POSITION": 0,
            "TANGENT": 2,
            "TEXCOORD_0": 3
          },
          "indices": 4,
          "material": 2,
          "mode": 4
        }
      ]
    },
    {
      "name": "Plane_0",
      "primitives": [
        {
          "attributes": {
            "NORMAL": 6,
            "POSITION": 5,
            "TANGENT": 7,
            "TEXCOORD_0": 8
          },
          "indices": 9,
          "material": 1,
          "mode": 4
        }
      ]
    },
    {
      "name": "Sphere_0",
      "primitives": [
        {
          "attributes": {
            "NORMAL": 11,
            "POSITION": 10
          },
          "indices": 12,
          "material": 0,
          "mode": 4
        }
      ]
    }
  ],
  "nodes": [
    {
      "children": [
        1
      ],
      "name": "RootNode (gltf orientation matrix)",
      "rotation": [
        -0.70710678118654746,
        -0,
        -0,
        0.70710678118654757
      ]
    },
    {
      "children": [
        2
      ],
      "name": "RootNode (model correction matrix)"
    },
    {
      "children": [
        3,
        6,
        9
      ],
      "name": "Root"
    },
    {
      "children": [
        4
      ],
      "matrix": [
        0.99451999999999996,
        0,
        -0.10453000000000001,
        0,
        0,
        1,
        0,
        0,
        0.10453000000000001,
        0,
        0.99451999999999996,
        0,
        0,
        0,
        0,
        1
      ],
      "name": "Cube"
    },
    {
      "children": [
        5
      ],
      "name": "Geode"
    },
    {
      "mesh": 0,
      "name": "Cube_0"
    },
    {
      "children": [
        7
      ],
      "matrix": [
        2.7984100000000001,
        0,
        0,
        0,
        0,
        2.7984100000000001,
        0,
        0,
        0,
        0,
        2.7984100000000001,
        0,
        -0.0009400000000000003,
        0.15743000000000004,
        -0.11603000000000002,
        1
      ],
      "name": "Plane"
    },
    {
      "children": [
        8
      ],
      "name": "Geode"
    },
    {
      "mesh": 1,
      "name": "Plane_0"
    },
    {
      "children": [
        10
      ],
      "matrix": [
        6.3776600000000006,
        0,
        0,
        0,
        0,
        6.3776600000000006,
        0,
        0,
        0,
        0,
        6.3776600000000006,
        0,
        -0.38879000000000002,
        -0.22762000000000002,
        1.71949,
        1
      ],
      "name": "Sphere"
    },
    {
      "children": [
        11
      ],
      "name": "Geode"
    },
    {
      "mesh": 2,
      "name": "Sphere_0"
    }
  ],
  "samplers": [
    {
      "magFilter": 9729,
      "minFilter": 9987,
      "wrapS": 10497,
      "wrapT": 10497
    }
  ],
  "scene": 0,
  "scenes": [
    {
      "name": "OSG_Scene",
      "nodes": [
        0
      ]
    }
  ],
  "textures": [
    {
      "sampler": 0,
      "source": 0
    },
    {
      "sampler": 0,
      "source": 1
    }
  ]
}

